<?xml version="1.0" standalone="no"?>
<!DOCTYPE svg PUBLIC "-//W3C//DTD SVG 1.1//EN" "http://www.w3.org/Graphics/SVG/1.1/DTD/svg11.dtd">
<svg class="icon" viewBox="0 0 1024 1024" version="1.1" xmlns="http://www.w3.org/2000/svg" width="200" height="200">
    <path
        d="M962.141652 511.617283c0-248.420883-201.497177-449.802426-450.126814-449.802426-248.597915 0-450.15649 201.381543-450.15649 449.802426 0 229.490741 171.957397 418.826947 394.174478 446.375373 12.517081 2.63706 27.757181 4.192485 45.956681 4.192485 5.042853 0 9.967002-0.292666 14.772448-0.76134C763.190461 958.8727 962.141652 758.486834 962.141652 511.617283L962.141652 511.617283zM897.808438 517.977132c-1.291412-22.450315-4.252861-44.402279-8.765641-65.767889 0.38374-7.621585 0.499373-14.832823 0.293689-21.571295 5.567809 26.142403 8.53028 53.225225 8.53028 80.979336C897.866766 513.757017 897.83709 515.867074 897.808438 517.977132L897.808438 517.977132zM126.160863 511.617283c0-27.256784 2.845815-53.870932 8.235568-79.513962 16.650215 17.819854 55.92266 17.378809 65.535599-9.231245 17.116843 10.226922 40.123836 12.045337 40.123836 32.502251 0 67.350944 2.434445 139.571802 63.631226 140.683113 1.728364 0.061398 34.143635 12.311397 49.588395 52.316529 5.306866 13.834076 26.409486 0 49.563836 0 11.546987 0 0 19.461237 0 61.521169 0 41.941228 90.358961 106.479103 90.358961 106.479103-0.411369 27.754111 0.732687 50.206472 3.048429 68.112284-20.428262-0.378623-37.60241 2.345418-51.115168 6.919597C263.91425 859.749122 126.160863 701.774181 126.160863 511.617283L126.160863 511.617283zM607.004259 885.394199c-1.992377-9.7869-10.756995-15.151072-26.702152-10.959609 12.723789-54.222949 18.905582-84.643796 45.48903-107.682511 38.514175-33.381271 4.630461-70.457702-24.679076-66.12093-23.064298 3.518127-8.498558-28.575826-29.074176-30.333866-20.60427-1.727341-47.539736-42.701544-77.169567-56.799634-15.709797-7.474228-31.155581-27.433816-55.422264-28.341488-21.455661-0.851391-52.845579 18.141172-52.845579 3.517103 0-47.186695-4.776793-80.83505-5.742794-94.257757-0.793062-10.8143-7.062859-3.664459 21.98164-2.931772 15.796778 0.410346 8.058536-31.769564 23.73968-33.002648 15.328104-1.230014 51.962465 14.363126 61.283762 8.148587 8.67559-5.804193 63.690578 144.464229 63.690578 24.825408 0-14.21577-7.358595-38.864146 0-52.315506 29.074176-53.109592 56.302307-96.396467 53.837162-102.756315-1.375324-3.546779-29.717835-6.507204-52.432163 1.111311-7.65126 2.579755 2.432399 14.56881-8.55791 17.116843-41.206494 9.526981-77.581959-11.106965-64.859193-30.481222 13.069667-19.869536 60.346413-8.67559 64.508199-48.535413 2.37407-22.801309 4.367471-49.239448 5.686513-68.9033 55.453986 8.676613 49.326429-71.952752-33.089629-80.600713 166.796864 1.962701 308.153312 109.703541 360.000144 259.177877-2.608407-2.37407-5.655813-3.838422-9.17394-4.192485-24.938995-62.250786-85.46244-17.203824-64.917522 37.721113-109.967554 84.556814-81.830727 143.525857-45.690622 177.26017 18.989493 17.791202 37.132712 44.462654 48.944735 63.632249-12.83533 37.486776 47.304376 22.481014 76.995605-41.092907C845.082586 749.518578 739.743446 851.835895 607.004259 885.394199L607.004259 885.394199zM607.004259 885.394199"
        fill="#999999" />
</svg>
