<?xml version="1.0" standalone="no"?>
<!DOCTYPE svg PUBLIC "-//W3C//DTD SVG 1.1//EN" "http://www.w3.org/Graphics/SVG/1.1/DTD/svg11.dtd">
<svg class="icon" viewBox="0 0 1024 1024" version="1.1" xmlns="http://www.w3.org/2000/svg" width="200" height="200">
    <path
        d="M667.495799 791.519382l-46.079964 46.079964a307.51976 307.51976 0 1 1-434.879661-434.879661l46.079964-46.079964a47.999963 47.999963 0 0 0-67.999946-67.839947l-45.919965 46.079964A403.359685 403.359685 0 0 0 403.976005 1023.9992a401.759686 401.759686 0 0 0 285.279777-118.079908l46.879963-46.399963a47.999963 47.999963 0 0 0-67.839947-67.999947zM905.575613 118.559907a403.679685 403.679685 0 0 0-570.559555 0l-46.079964 45.919965a47.999963 47.999963 0 0 0 67.839947 67.999946l46.079964-46.079964a307.51976 307.51976 0 0 1 434.879661 434.879661l-46.079964 46.079964A47.999963 47.999963 0 0 0 859.655649 735.999425l45.919964-46.079964a403.679685 403.679685 0 0 0 0-571.359554z"
        fill="#021408" />
    <path
        d="M333.343583 622.981503m33.941099-33.941099l222.087924-222.087924q33.941099-33.941099 67.882198 0l0 0q33.941099 33.941099 0 67.882198l-222.087924 222.087924q-33.941099 33.941099-67.882198 0l0 0q-33.941099-33.941099 0-67.882198Z"
        fill="#00CE3F" />
</svg>
