<?xml version="1.0" standalone="no"?>
<svg xmlns="http://www.w3.org/2000/svg" width="1024" height="1090.011" viewBox="0 0 1024 1090.011">
    <g id="列数" transform="translate(1024) rotate(90)">
        <path
            d="M72.214,0a72.214,72.214,0,1,0,72.214,72.214A72.214,72.214,0,0,0,72.214,0Zm0,438.341a72.214,72.214,0,1,0,72.214,72.214A72.214,72.214,0,0,0,72.214,438.341Zm0,441.23a72.214,72.214,0,1,0,72.214,72.214A72.214,72.214,0,0,0,72.214,879.571ZM1057.94,35.385H321.354a40.44,40.44,0,0,0-40.44,40.44A31.774,31.774,0,0,0,312.688,107.6H1057.94a31.774,31.774,0,0,0,31.774-31.774V67.159a31.774,31.774,0,0,0-31.774-31.774Zm0,439.786H321.354a40.44,40.44,0,0,0-40.44,40.44,31.774,31.774,0,0,0,31.774,31.774H1057.94a31.774,31.774,0,0,0,31.774-31.774V505.5a31.774,31.774,0,0,0-31.774-30.33ZM303.3,920.011a31.774,31.774,0,0,0-22.387,30.33v5.777A41.162,41.162,0,0,1,303.3,920.011Zm754.64,67.882H312.688a31.774,31.774,0,0,1-31.774-31.774,31.774,31.774,0,0,0,31.774,31.774H1057.94a31.774,31.774,0,0,0,31.774-31.774,31.774,31.774,0,0,1-31.774,31.774Zm0-72.215H321.354a39,39,0,0,0-18.054,4.333h754.64a31.774,31.774,0,0,1,31.774,31.774,31.774,31.774,0,0,0-31.774-36.107Z"
            fill="#cbe6ff"/>
        <path
            d="M1057.94,918.567H303.3a41.162,41.162,0,0,0-22.386,36.107,31.774,31.774,0,0,0,31.774,31.774H1057.94a31.774,31.774,0,0,0,31.774-31.774V948.9a31.774,31.774,0,0,0-31.774-30.33Z"
            fill="#cbe6ff"/>
    </g>
</svg>
