<?xml version="1.0" standalone="no"?>
<!DOCTYPE svg PUBLIC "-//W3C//DTD SVG 1.1//EN" "http://www.w3.org/Graphics/SVG/1.1/DTD/svg11.dtd">
<svg class="icon" viewBox="0 0 1024 1024" version="1.1" xmlns="http://www.w3.org/2000/svg" width="200" height="200">
    <path
        d="M301.414092 755.38277m-65.031749-61.669697l-119.983578-113.780592q-65.03175-61.669697-3.362052-126.701447l374.951761-395.393037q61.669697-65.03175 126.701447-3.362052l119.983577 113.780592q65.03175 61.669697 3.362052 126.701447l-374.95176 395.393037q-61.669697 65.03175-126.701447 3.362052Z"
        fill="#51F2F2" />
    <path
        d="M894.37582 143.006025L782.347084 36.802784A134.434482 134.434482 0 0 0 686.002372 0.057359a134.434482 134.434482 0 0 0-93.656023 41.674689 44.811494 44.811494 0 1 0 64.976667 61.839862 44.811494 44.811494 0 0 1 31.368045-13.891563 44.811494 44.811494 0 0 1 31.816161 12.099103l112.028736 106.651357a44.811494 44.811494 0 0 1 0 63.184206l-352.218344 371.487287a44.811494 44.811494 0 0 1-63.184207 0l-112.028735-106.203241a44.811494 44.811494 0 0 1 0-63.184207l263.9397-278.727494a44.811494 44.811494 0 0 0-64.976666-61.391747L240.128005 411.87499a134.434482 134.434482 0 0 0-25.990667 39.88223 44.811494 44.811494 0 0 0-17.028367 26.438781l-58.703058 293.515287a44.811494 44.811494 0 0 0 12.995334 41.226575 44.811494 44.811494 0 0 0 30.919931 12.547218h11.202873l287.689793-73.938965a47.052069 47.052069 0 0 0 25.990666-18.820828 134.434482 134.434482 0 0 0 38.08977-27.783126l352.218344-371.039172a134.434482 134.434482 0 0 0-3.136804-190.896965zM258.948833 617.111633l80.660689 76.17954-101.273977 25.990667zM792.205613 934.377012H137.061568a44.811494 44.811494 0 0 0 0 89.622988h655.144045a44.811494 44.811494 0 0 0 0-89.622988z"
        fill="#333333" />
</svg>
