<?xml version="1.0" standalone="no"?>
<svg class="icon" viewBox="0 0 1090 1024" version="1.1" xmlns="http://www.w3.org/2000/svg" width="200" height="200">
    <path
        d="M72.214386 0a72.214386 72.214386 0 1 0 72.214387 72.214386 72.214386 72.214386 0 0 0-72.214387-72.214386zM72.214386 438.341326a72.214386 72.214386 0 1 0 72.214387 72.214386 72.214386 72.214386 0 0 0-72.214387-72.214386zM72.214386 879.571227a72.214386 72.214386 0 1 0 72.214387 72.214387 72.214386 72.214386 0 0 0-72.214387-72.214387zM1057.940762 35.385049H321.35402a40.440056 40.440056 0 0 0-40.440057 40.440057 31.77433 31.77433 0 0 0 31.77433 31.77433h745.252469a31.77433 31.77433 0 0 0 31.77433-31.77433V67.159379a31.77433 31.77433 0 0 0-31.77433-31.77433zM1057.940762 475.170663H321.35402a40.440056 40.440056 0 0 0-40.440057 40.440056 31.77433 31.77433 0 0 0 31.77433 31.77433h745.252469a31.77433 31.77433 0 0 0 31.77433-31.77433V505.500705a31.77433 31.77433 0 0 0-31.77433-30.330042zM303.300423 920.011283a31.77433 31.77433 0 0 0-22.38646 30.330043v5.777151a41.1622 41.1622 0 0 1 22.38646-36.107194zM1057.940762 987.892807H312.688293a31.77433 31.77433 0 0 1-31.77433-31.77433 31.77433 31.77433 0 0 0 31.77433 31.77433h745.252469a31.77433 31.77433 0 0 0 31.77433-31.77433 31.77433 31.77433 0 0 1-31.77433 31.77433zM1057.940762 915.67842H321.35402a38.995769 38.995769 0 0 0-18.053597 4.332863H1057.940762a31.77433 31.77433 0 0 1 31.77433 31.774331 31.77433 31.77433 0 0 0-31.77433-36.107194z"
        fill="#CBE6FF" />
    <path
        d="M1057.940762 918.566996H303.300423a41.1622 41.1622 0 0 0-22.38646 36.107193 31.77433 31.77433 0 0 0 31.77433 31.77433h745.252469a31.77433 31.77433 0 0 0 31.77433-31.77433v-5.777151a31.77433 31.77433 0 0 0-31.77433-30.330042z"
        fill="#CBE6FF" />
</svg>

